<?xml version="1.0" encoding="utf-8"?>
<!-- Generator: Adobe Illustrator 19.2.1, SVG Export Plug-In . SVG Version: 6.00 Build 0)  -->
<svg version="1.1" id="layer" xmlns="http://www.w3.org/2000/svg" xmlns:xlink="http://www.w3.org/1999/xlink" x="0px" y="0px"
	 viewBox="0 0 652 652" style="enable-background:new 0 0 652 652;" xml:space="preserve">
<style type="text/css">
	.st0{fill:#006AC6;}
</style>
<polygon class="st0" points="130.8,276.7 150.6,276.7 150.6,348.7 196.9,348.7 196.9,366.3 130.8,366.3 "/>
<polygon class="st0" points="205.9,276.7 273.1,276.7 273.1,294.4 225.7,294.4 225.7,312.2 264.3,312.2 264.3,329.6 225.7,329.6 
	225.7,348.7 273.1,348.7 273.1,366.3 205.9,366.3 "/>
<path class="st0" d="M303.9,366.3h-19.8v-89.6h40.9c22.5,0,36.5,10.2,36.5,28.5v4.6c0,11.5-7.2,21-20.7,24.6l24.3,31.9h-25.3
	l-23.6-31.9v-13.3h8.8c10.8,0,16.7-4,16.7-12.7v-1.7c0-8.7-5.8-12.4-16.7-12.4h-21.2V366.3z"/>
<polygon class="st0" points="394.7,294.2 366,294.2 366,276.7 443.3,276.7 443.3,294.2 414.6,294.2 414.6,366.3 394.7,366.3 "/>
<path class="st0" d="M448.7,304.6c0-18.4,18-29.7,40.3-29.7c22.2,0,40.2,11.3,40.2,29.7v33.7c0,18.4-18,29.8-40.2,29.8
	c-22.3,0-40.3-11.4-40.3-29.8V304.6z M468.6,336.7c0,9,9.1,13.7,20.4,13.7c11.2,0,20.3-4.7,20.3-13.7v-30.6c0-9-9.1-13.7-20.3-13.7
	c-11.3,0-20.4,4.7-20.4,13.7V336.7z"/>
<polygon class="st0" points="601.7,276.7 602.3,334 561.4,276.7 541.2,276.7 541.2,366.3 560.8,366.3 560.3,309.6 600.8,366.3 
	621.4,366.3 621.4,276.7 "/>
<polygon class="st0" points="98.7,276.7 21.4,366.3 45.2,366.3 99.5,304.9 99.5,331.3 82.8,331.3 82.8,347.9 99.5,347.9 99.5,366.3 
	119.6,366.3 119.6,366.3 119.6,276.7 "/>
</svg>
